<svg width="1024" height="1024" viewBox="0 0 1024 1024" xmlns="http://www.w3.org/2000/svg">
  <defs>
    <linearGradient id="grad_blue" x1="0%" y1="0%" x2="100%" y2="100%">
      <stop offset="0%" style="stop-color:#3b82f6;stop-opacity:1" />
      <stop offset="100%" style="stop-color:#06b6d4;stop-opacity:1" />
    </linearGradient>
  </defs>
  <path d="M 482 154 L 494 154 L 495 153 L 523 153 L 524 154 L 540 154 L 541 155 L 549 155 L 550 156 L 557 156 L 558 157 L 565 157 L 566 158 L 572 158 L 573 159 L 578 159 L 579 160 L 583 160 L 584 161 L 587 161 L 588 162 L 590 162 L 591 163 L 594 163 L 595 164 L 598 164 L 599 165 L 602 165 L 603 166 L 606 166 L 607 167 L 609 167 L 610 168 L 613 168 L 614 169 L 617 169 L 618 170 L 620 170 L 621 171 L 623 171 L 624 172 L 626 172 L 627 173 L 628 173 L 629 174 L 631 174 L 632 175 L 633 175 L 634 176 L 636 176 L 637 177 L 638 177 L 639 178 L 641 178 L 642 179 L 644 179 L 645 180 L 646 180 L 647 181 L 649 181 L 650 182 L 651 182 L 652 183 L 653 183 L 654 184 L 656 184 L 657 185 L 658 185 L 659 186 L 660 186 L 661 187 L 662 187 L 663 188 L 664 188 L 666 190 L 667 190 L 668 191 L 669 191 L 670 192 L 671 192 L 672 193 L 673 193 L 674 194 L 675 194 L 676 195 L 677 195 L 678 196 L 679 196 L 681 198 L 682 198 L 683 199 L 684 199 L 685 200 L 686 200 L 688 202 L 689 202 L 690 203 L 691 203 L 692 204 L 693 204 L 695 206 L 696 206 L 698 208 L 699 208 L 701 210 L 702 210 L 703 211 L 704 211 L 706 213 L 707 213 L 710 216 L 711 216 L 713 218 L 714 218 L 716 220 L 717 220 L 719 222 L 720 222 L 723 225 L 724 225 L 727 228 L 728 228 L 733 233 L 734 233 L 739 238 L 740 238 L 744 242 L 745 242 L 753 250 L 754 250 L 759 255 L 759 256 L 779 276 L 779 277 L 784 282 L 784 283 L 787 286 L 787 287 L 791 291 L 791 292 L 795 296 L 795 297 L 798 300 L 798 301 L 801 304 L 801 305 L 803 307 L 803 308 L 805 310 L 805 311 L 807 313 L 807 314 L 809 316 L 809 317 L 811 319 L 811 320 L 813 322 L 813 323 L 814 324 L 814 325 L 816 327 L 816 328 L 817 329 L 817 330 L 819 332 L 819 333 L 820 334 L 820 335 L 821 336 L 821 337 L 823 339 L 823 340 L 824 341 L 824 342 L 825 343 L 825 344 L 826 345 L 826 346 L 827 347 L 827 348 L 829 350 L 829 351 L 830 352 L 830 353 L 831 354 L 831 356 L 833 358 L 833 359 L 834 360 L 834 361 L 835 362 L 835 363 L 836 364 L 836 365 L 837 366 L 837 368 L 838 369 L 838 370 L 839 371 L 839 372 L 840 373 L 840 374 L 841 375 L 841 376 L 842 377 L 842 379 L 843 380 L 843 382 L 844 383 L 844 384 L 845 385 L 845 387 L 846 388 L 846 389 L 847 390 L 847 392 L 848 393 L 848 395 L 849 396 L 849 398 L 850 399 L 850 401 L 851 402 L 851 404 L 852 405 L 852 407 L 853 408 L 853 411 L 854 412 L 854 414 L 855 415 L 855 418 L 856 419 L 856 421 L 857 422 L 857 425 L 858 426 L 858 429 L 859 430 L 859 433 L 860 434 L 860 435 L 861 436 L 861 440 L 862 441 L 862 445 L 863 446 L 863 451 L 864 452 L 864 456 L 865 457 L 865 464 L 866 465 L 866 471 L 867 472 L 867 479 L 868 480 L 868 487 L 869 488 L 869 510 L 870 511 L 870 869 L 869 870 L 692 870 L 691 869 L 691 500 L 690 499 L 690 490 L 689 489 L 689 486 L 688 485 L 688 480 L 687 479 L 687 476 L 686 475 L 686 471 L 685 470 L 685 467 L 684 466 L 684 463 L 683 462 L 683 459 L 682 458 L 682 456 L 681 455 L 681 453 L 680 452 L 680 451 L 679 450 L 679 448 L 678 447 L 678 446 L 677 445 L 677 443 L 676 442 L 676 441 L 675 440 L 675 438 L 674 437 L 674 436 L 672 434 L 672 433 L 671 432 L 671 431 L 670 430 L 670 428 L 668 426 L 668 425 L 667 424 L 667 423 L 666 422 L 666 421 L 664 419 L 664 418 L 663 417 L 663 416 L 661 414 L 661 413 L 659 411 L 659 410 L 656 407 L 656 406 L 653 403 L 653 402 L 650 399 L 650 398 L 644 392 L 644 391 L 635 382 L 634 382 L 625 373 L 624 373 L 621 370 L 620 370 L 616 366 L 615 366 L 612 363 L 611 363 L 609 361 L 608 361 L 606 359 L 605 359 L 603 357 L 602 357 L 601 356 L 600 356 L 599 355 L 598 355 L 597 354 L 596 354 L 595 353 L 594 353 L 593 352 L 592 352 L 591 351 L 590 351 L 588 349 L 587 349 L 586 348 L 585 348 L 584 347 L 582 347 L 581 346 L 580 346 L 579 345 L 578 345 L 577 344 L 575 344 L 574 343 L 573 343 L 572 342 L 570 342 L 569 341 L 567 341 L 566 340 L 564 340 L 563 339 L 559 339 L 558 338 L 556 338 L 555 337 L 551 337 L 550 336 L 546 336 L 545 335 L 540 335 L 539 334 L 536 334 L 535 333 L 526 333 L 525 332 L 505 332 L 504 333 L 491 333 L 490 334 L 483 334 L 485 332 L 486 332 L 487 331 L 488 331 L 489 330 L 490 330 L 491 329 L 492 329 L 494 327 L 495 327 L 496 326 L 497 326 L 498 325 L 499 325 L 500 324 L 501 324 L 502 323 L 504 323 L 505 322 L 506 322 L 507 321 L 508 321 L 509 320 L 510 320 L 511 319 L 512 319 L 513 318 L 514 318 L 515 317 L 516 317 L 517 316 L 519 316 L 520 315 L 521 315 L 522 314 L 524 314 L 525 313 L 527 313 L 528 312 L 530 312 L 531 311 L 534 311 L 535 310 L 541 310 L 542 309 L 545 309 L 546 308 L 550 308 L 551 307 L 557 307 L 558 306 L 584 306 L 585 307 L 592 307 L 593 308 L 598 308 L 599 309 L 602 309 L 603 310 L 606 310 L 607 311 L 610 311 L 611 312 L 615 312 L 616 313 L 618 313 L 619 314 L 621 314 L 622 315 L 623 315 L 624 316 L 626 316 L 627 317 L 628 317 L 629 318 L 630 318 L 631 319 L 632 319 L 633 320 L 634 320 L 635 321 L 636 321 L 637 322 L 638 322 L 640 324 L 641 324 L 642 325 L 643 325 L 645 327 L 646 327 L 647 328 L 648 328 L 650 330 L 651 330 L 653 332 L 654 332 L 656 334 L 657 334 L 660 337 L 661 337 L 669 345 L 670 345 L 686 361 L 686 362 L 691 367 L 691 368 L 694 371 L 694 372 L 697 375 L 697 376 L 699 378 L 699 379 L 701 381 L 701 382 L 704 385 L 704 386 L 706 388 L 706 389 L 708 391 L 708 392 L 709 393 L 709 394 L 711 396 L 711 397 L 712 398 L 712 399 L 713 400 L 713 401 L 714 402 L 714 403 L 715 404 L 715 405 L 716 406 L 716 407 L 717 408 L 717 409 L 719 411 L 719 412 L 720 413 L 720 414 L 721 415 L 721 417 L 722 418 L 722 419 L 723 420 L 723 421 L 724 422 L 724 424 L 725 425 L 725 426 L 726 427 L 726 429 L 727 430 L 727 431 L 728 432 L 728 435 L 729 436 L 729 438 L 730 439 L 730 441 L 731 442 L 731 444 L 732 445 L 732 448 L 733 449 L 733 451 L 734 452 L 734 455 L 735 456 L 735 460 L 736 461 L 736 463 L 737 464 L 737 469 L 738 470 L 738 473 L 739 474 L 739 481 L 740 482 L 740 491 L 741 492 L 741 503 L 742 504 L 742 818 L 743 819 L 817 819 L 819 817 L 819 506 L 818 505 L 818 491 L 817 490 L 817 481 L 816 480 L 816 473 L 815 472 L 815 468 L 814 467 L 814 462 L 813 461 L 813 458 L 812 457 L 812 454 L 811 453 L 811 450 L 810 449 L 810 446 L 809 445 L 809 442 L 808 441 L 808 439 L 807 438 L 807 435 L 806 434 L 806 432 L 805 431 L 805 428 L 804 427 L 804 425 L 803 424 L 803 423 L 802 422 L 802 420 L 801 419 L 801 418 L 800 417 L 800 415 L 799 414 L 799 413 L 798 412 L 798 410 L 797 409 L 797 408 L 796 407 L 796 406 L 795 405 L 795 404 L 794 403 L 794 402 L 793 401 L 793 400 L 792 399 L 792 398 L 791 397 L 791 396 L 790 395 L 790 394 L 789 393 L 789 392 L 788 391 L 788 390 L 787 389 L 787 388 L 786 387 L 786 386 L 784 384 L 784 383 L 782 381 L 782 380 L 780 378 L 780 377 L 779 376 L 779 375 L 776 372 L 776 371 L 774 369 L 774 368 L 772 366 L 772 365 L 769 362 L 769 361 L 767 359 L 767 358 L 766 357 L 765 357 L 765 356 L 758 349 L 758 348 L 741 331 L 740 331 L 734 325 L 733 325 L 730 322 L 729 322 L 726 319 L 725 319 L 722 316 L 721 316 L 719 314 L 718 314 L 715 311 L 714 311 L 712 309 L 711 309 L 710 308 L 709 308 L 707 306 L 706 306 L 705 305 L 704 305 L 703 304 L 702 304 L 701 303 L 700 303 L 699 302 L 698 302 L 697 301 L 696 301 L 695 300 L 694 300 L 693 299 L 692 299 L 690 297 L 689 297 L 688 296 L 687 296 L 686 295 L 685 295 L 684 294 L 683 294 L 682 293 L 680 293 L 679 292 L 678 292 L 677 291 L 676 291 L 675 290 L 673 290 L 672 289 L 670 289 L 669 288 L 668 288 L 667 287 L 664 287 L 663 286 L 661 286 L 660 285 L 658 285 L 657 284 L 654 284 L 653 283 L 651 283 L 650 282 L 647 282 L 646 281 L 643 281 L 642 280 L 638 280 L 637 279 L 633 279 L 632 278 L 627 278 L 626 277 L 621 277 L 620 276 L 614 276 L 613 275 L 576 275 L 575 276 L 566 276 L 565 277 L 558 277 L 557 278 L 553 278 L 552 279 L 548 279 L 547 280 L 544 280 L 543 281 L 540 281 L 539 282 L 535 282 L 534 283 L 531 283 L 530 284 L 527 284 L 526 285 L 524 285 L 523 286 L 521 286 L 520 287 L 518 287 L 517 288 L 516 288 L 515 289 L 513 289 L 512 290 L 511 290 L 510 291 L 508 291 L 507 292 L 506 292 L 505 293 L 503 293 L 502 294 L 501 294 L 500 295 L 499 295 L 498 296 L 496 296 L 495 297 L 494 297 L 493 298 L 492 298 L 491 299 L 490 299 L 489 300 L 488 300 L 487 301 L 485 301 L 483 303 L 482 303 L 481 304 L 480 304 L 479 305 L 478 305 L 476 307 L 475 307 L 474 308 L 473 308 L 472 309 L 471 309 L 469 311 L 468 311 L 467 312 L 466 312 L 464 314 L 463 314 L 462 315 L 461 315 L 460 316 L 459 316 L 457 318 L 456 318 L 454 320 L 453 320 L 450 323 L 449 323 L 447 325 L 446 325 L 443 328 L 442 328 L 439 331 L 438 331 L 435 334 L 434 334 L 429 339 L 428 339 L 423 344 L 422 344 L 415 351 L 414 351 L 403 362 L 403 363 L 392 374 L 392 375 L 387 380 L 387 381 L 385 383 L 385 384 L 379 390 L 379 391 L 377 393 L 377 394 L 375 396 L 375 397 L 372 400 L 372 401 L 371 402 L 371 403 L 368 406 L 368 407 L 367 408 L 367 409 L 366 410 L 366 411 L 364 413 L 364 414 L 363 415 L 363 416 L 362 417 L 362 418 L 361 419 L 361 420 L 359 422 L 359 423 L 358 424 L 358 425 L 357 426 L 357 427 L 356 428 L 356 429 L 355 430 L 355 431 L 354 432 L 354 433 L 353 434 L 353 435 L 352 436 L 352 437 L 351 438 L 351 440 L 350 441 L 350 442 L 349 443 L 349 444 L 348 445 L 348 447 L 347 448 L 347 449 L 346 450 L 346 452 L 345 453 L 345 455 L 344 456 L 344 458 L 343 459 L 343 460 L 342 461 L 342 463 L 341 464 L 341 466 L 340 467 L 340 469 L 339 470 L 339 473 L 338 474 L 338 477 L 337 478 L 337 482 L 336 483 L 336 487 L 335 488 L 335 494 L 334 495 L 334 501 L 333 502 L 333 511 L 332 512 L 332 712 L 333 713 L 562 713 L 562 715 L 563 716 L 563 742 L 562 743 L 562 752 L 563 753 L 562 754 L 563 755 L 563 761 L 562 762 L 562 767 L 563 768 L 563 793 L 562 794 L 562 804 L 563 805 L 563 810 L 562 811 L 563 812 L 562 813 L 562 818 L 563 819 L 563 844 L 562 845 L 562 848 L 563 849 L 563 858 L 562 859 L 562 860 L 563 861 L 562 862 L 562 870 L 154 870 L 153 869 L 153 502 L 154 501 L 154 490 L 155 489 L 155 478 L 156 477 L 156 469 L 157 468 L 157 462 L 158 461 L 158 458 L 159 457 L 159 453 L 160 452 L 160 447 L 161 446 L 161 443 L 162 442 L 162 438 L 163 437 L 163 433 L 164 432 L 164 428 L 165 427 L 165 425 L 166 424 L 166 421 L 167 420 L 167 418 L 168 417 L 168 414 L 169 413 L 169 411 L 170 410 L 170 409 L 171 408 L 171 406 L 172 405 L 172 403 L 173 402 L 173 400 L 174 399 L 174 397 L 175 396 L 175 394 L 176 393 L 176 391 L 177 390 L 177 389 L 178 388 L 178 386 L 179 385 L 179 383 L 180 382 L 180 381 L 181 380 L 181 378 L 182 377 L 182 376 L 183 375 L 183 374 L 184 373 L 184 371 L 185 370 L 185 369 L 186 368 L 186 367 L 187 366 L 187 365 L 188 364 L 188 363 L 189 362 L 189 360 L 190 359 L 190 358 L 191 357 L 191 356 L 192 355 L 192 354 L 193 353 L 193 352 L 194 351 L 194 350 L 195 349 L 195 348 L 196 347 L 196 346 L 197 345 L 197 344 L 198 343 L 198 342 L 200 340 L 200 339 L 201 338 L 201 337 L 202 336 L 202 335 L 204 333 L 204 332 L 205 331 L 205 330 L 206 329 L 206 328 L 208 326 L 208 325 L 210 323 L 210 322 L 212 320 L 212 319 L 214 317 L 214 316 L 215 315 L 215 314 L 217 312 L 217 311 L 219 309 L 219 308 L 223 304 L 223 303 L 226 300 L 226 299 L 229 296 L 229 295 L 231 293 L 231 292 L 234 289 L 234 288 L 238 284 L 238 283 L 248 273 L 248 272 L 257 263 L 257 262 L 262 257 L 263 257 L 274 246 L 275 246 L 284 237 L 285 237 L 290 232 L 291 232 L 293 230 L 294 230 L 297 227 L 298 227 L 302 223 L 303 223 L 305 221 L 306 221 L 310 217 L 311 217 L 313 215 L 314 215 L 316 213 L 317 213 L 319 211 L 320 211 L 322 209 L 323 209 L 326 206 L 327 206 L 328 205 L 329 205 L 330 204 L 331 204 L 333 202 L 334 202 L 335 201 L 336 201 L 338 199 L 339 199 L 340 198 L 341 198 L 342 197 L 343 197 L 344 196 L 345 196 L 346 195 L 347 195 L 348 194 L 349 194 L 350 193 L 351 193 L 353 191 L 354 191 L 355 190 L 356 190 L 357 189 L 359 189 L 360 188 L 361 188 L 362 187 L 363 187 L 364 186 L 365 186 L 366 185 L 367 185 L 368 184 L 370 184 L 371 183 L 372 183 L 373 182 L 374 182 L 375 181 L 377 181 L 378 180 L 379 180 L 380 179 L 381 179 L 382 178 L 384 178 L 385 177 L 387 177 L 388 176 L 389 176 L 390 175 L 392 175 L 393 174 L 395 174 L 396 173 L 397 173 L 398 172 L 401 172 L 402 171 L 404 171 L 405 170 L 407 170 L 408 169 L 409 169 L 410 168 L 412 168 L 413 167 L 415 167 L 416 166 L 419 166 L 420 165 L 423 165 L 424 164 L 427 164 L 428 163 L 432 163 L 433 162 L 437 162 L 438 161 L 442 161 L 443 160 L 447 160 L 448 159 L 452 159 L 453 158 L 458 158 L 459 157 L 462 157 L 463 156 L 470 156 L 471 155 L 480 155 L 481 154 L 482 154 Z" fill="url(#grad_blue)" stroke="none" />
</svg>