<svg xmlns="http://www.w3.org/2000/svg" width="16" height="16" fill="currentColor" class="bi bi-file-earmark-word" viewBox="0 0 16 16">
  <path d="M4.225 13.25a.75.75 0 0 1-.217-1.034l1.25-1.5c.2-.24.417-.433.6-.563.181-.13.354-.22.51-.256a.75.75 0 0 1 .384.058.71.71 0 0 1 .258.183c.058.084.096.19.114.322.018.132.007.29-.035.476l-.143.648c-.047.212-.108.416-.183.612a2.2 2.2 0 0 0 .217.165.85.85 0 0 0 .38.087c.237 0 .455-.06.654-.18a.9.9 0 0 0 .447-.417l.252-.477c.062-.12.117-.236.162-.344a.75.75 0 1 1 1.32.66l-.248.468c-.14.264-.33.492-.568.678-.238.186-.52.322-.85.41a1.5 1.5 0 0 1-.605.062 1.4 1.4 0 0 1-.52-.106 1.2 1.2 0 0 1-.447-.317 1.3 1.3 0 0 1-.3-.443l-.086-.3c-.036-.118-.083-.262-.14-.434l-.235.42c-.12.217-.28.4-.478.548a1.1 1.1 0 0 1-.62.193.75.75 0 0 1-.5-.175.75.75 0 0 1-.217-.557z"/>
  <path d="M14 4.5V14a2 2 0 0 1-2 2H4a2 2 0 0 1-2-2V2a2 2 0 0 1 2-2h5.5L14 4.5zm-3 0A1.5 1.5 0 0 1 9.5 3V1H4a1 1 0 0 0-1 1v12a1 1 0 0 0 1 1h8a1 1 0 0 0 1-1V4.5h-2z"/>
</svg>