<svg xmlns="http://www.w3.org/2000/svg" width="16" height="16" fill="currentColor" class="bi bi-file-pdf" viewBox="0 0 16 16">
  <path d="M4 0a2 2 0 0 0-2 2v12a2 2 0 0 0 2 2h8a2 2 0 0 0 2-2V2a2 2 0 0 0-2-2H4zm0 1h8a1 1 0 0 1 1 1v12a1 1 0 0 1-1 1H4a1 1 0 0 1-1-1V2a1 1 0 0 1 1-1z"/>
  <path d="M4.602 12.445c.21.13.48.25.78.355c.29.105.61.158.95.158c.51 0 .92-.125 1.22-.375c.3-.25.45-.6.45-1.05c0-.415-.14-.74-.42-1.01c-.28-.27-.66-.405-1.14-.405h-.5v-.94h.45c.34 0 .63-.09.87-.27c.24-.18.36-.44.36-.78c0-.31-.11-.55-.33-.73s-.51-.27-.88-.27c-.34 0-.63.09-.87.27c-.24.18-.36.44-.36.78h-.75c0-.52.22-1 .66-1.42c.44-.42 1.03-.63 1.78-.63c.58 0 1.08.12 1.5.36c.42.24.63.59.63 1.04c0 .31-.08.56-.24.75c-.16.19-.39.33-.69.42v.105c.42.08.77.25 1.05.51c.28.26.42.6.42 1.02c0 .58-.25 1.06-.74 1.44c-.5.38-1.14.57-1.92.57c-.49 0-.93-.08-1.32-.24c-.39-.16-.72-.37-1-.63h.75zM9.49 12.11h.75v-5.8h-.75v5.8z"/>
</svg>