<svg xmlns="http://www.w3.org/2000/svg" width="16" height="16" fill="currentColor" class="bi bi-file-earmark-ppt" viewBox="0 0 16 16">
  <path d="M8 5.5a1 1 0 0 0-1 1v1.5a.5.5 0 0 0 .5.5H9a.5.5 0 0 0 .5-.5v-1.5a1 1 0 0 0-1-1z"/>
  <path d="M4.604 13.25a.75.75 0 0 1-.524-.22l-1.25-1.25a.75.75 0 0 1 1.048-1.07l1.25 1.25a.75.75 0 0 1-.524 1.29z"/>
  <path d="M14 4.5V14a2 2 0 0 1-2 2H4a2 2 0 0 1-2-2V2a2 2 0 0 1 2-2h5.5L14 4.5zm-3 0A1.5 1.5 0 0 1 9.5 3V1H4a1 1 0 0 0-1 1v12a1 1 0 0 0 1 1h8a1 1 0 0 0 1-1V4.5h-2z"/>
</svg>